<?xml version="1.0" encoding="UTF-8"?>
<!DOCTYPE svg PUBLIC "-//W3C//DTD SVG 1.1//EN" "http://www.w3.org/Graphics/SVG/1.1/DTD/svg11.dtd">
<!-- Creator: CorelDRAW 2020 (64-Bit) -->
<svg xmlns="http://www.w3.org/2000/svg" xml:space="preserve" width="14.3932mm" height="14.3932mm" version="1.1" style="shape-rendering:geometricPrecision; text-rendering:geometricPrecision; image-rendering:optimizeQuality; fill-rule:evenodd; clip-rule:evenodd"
viewBox="0 0 70.79 70.79"
 xmlns:xlink="http://www.w3.org/1999/xlink"
 xmlns:xodm="http://www.corel.com/coreldraw/odm/2003">
 <defs>
  <style type="text/css">
   <![CDATA[
    .fil0 {fill:#000000;fill-rule:nonzero}
   ]]>
  </style>
 </defs>
 <g id="Layer_x0020_1">
  <metadata id="CorelCorpID_0Corel-Layer"/>
  <path class="fil0" d="M35.39 0c19.55,0 35.39,15.84 35.39,35.39 0,19.55 -15.84,35.39 -35.39,35.39 -19.55,0 -35.39,-15.84 -35.39,-35.39 0,-19.55 15.84,-35.39 35.39,-35.39zm-16.55 41.67l16.55 0 0 10.12c0,1.53 1.86,2.3 2.93,1.21l16.31 -16.4c0.67,-0.67 0.67,-1.74 0,-2.41l-16.31 -16.41c-1.08,-1.08 -2.93,-0.31 -2.93,1.21l0 10.12 -16.55 0c-0.94,0 -1.71,0.77 -1.71,1.71l0 9.13c0,0.94 0.77,1.71 1.71,1.71z"/>
 </g>
</svg>
